<?xml version="1.0" standalone="no"?>
<svg xmlns="http://www.w3.org/2000/svg" xmlns:xlink="http://www.w3.org/1999/xlink" width="445pt" height="790pt" viewBox="0.00 0.00 444.65 789.60">
<g id="graph0" class="graph" transform="translate(-63.05670614490566,871.8667250964229) scale(1.2806078584963265)" data-name="main.c.224t.switchlower_O0">

<polygon fill="white" stroke="none" points="-4,4 -4,-785.6 440.65,-785.6 440.65,4 -4,4" style=""/>
<g id="clust1" class="cluster" data-name="cluster_main">

<polygon fill="none" stroke="black" stroke-dasharray="5,2" points="8,-8 8,-773.6 394,-773.6 394,-8 8,-8" style=""/>
<text text-anchor="middle" x="201" y="-757" font-family="Times,serif" font-size="14.00" style="">main ()</text>
</g>
<g id="clust2" class="cluster" data-name="cluster_0_1">

<polygon fill="#e0e0e0" stroke="darkgreen" stroke-width="2" points="184,-203.8 184,-543.8 386,-543.8 386,-203.8 184,-203.8" style=""/>
<text text-anchor="middle" x="209.69" y="-527.2" font-family="Times,serif" font-size="14.00" style="">loop 1</text>
</g>
<!-- fn_0_basic_block_4 -->
<g id="node1" class="node" pointer-events="visible" data-name="fn_0_basic_block_4">

<polygon fill="lightgrey" stroke="black" points="192.06,-336.1 192.06,-510.5 377.94,-510.5 377.94,-336.1 192.06,-336.1" style=""/>
<text text-anchor="start" x="200.06" y="-493.9" font-family="Times,serif" font-size="14.00" style="">&lt;bb 4&gt;:</text>
<polyline fill="none" stroke="black" points="192.06,-485.7 377.94,-485.7" style=""/>
<text text-anchor="start" x="200.06" y="-469.1" font-family="Times,serif" font-size="14.00" style=""># i_2 = PHI &lt;i_6(2), i_12(3)&gt;</text>
<polyline fill="none" stroke="black" points="192.06,-460.9 377.94,-460.9" style=""/>
<text text-anchor="start" x="200.06" y="-444.3" font-family="Times,serif" font-size="14.00" style=""># f_3 = PHI &lt;f_7(2), f_11(3)&gt;</text>
<polyline fill="none" stroke="black" points="192.06,-436.1 377.94,-436.1" style=""/>
<text text-anchor="start" x="200.06" y="-419.5" font-family="Times,serif" font-size="14.00" style="">n.0_1 = n;</text>
<polyline fill="none" stroke="black" points="192.06,-411.3 377.94,-411.3" style=""/>
<text text-anchor="start" x="200.06" y="-394.7" font-family="Times,serif" font-size="14.00" style="">if (i_2 &lt;= n.0_1)</text>
<text text-anchor="start" x="200.06" y="-377.9" font-family="Times,serif" font-size="14.00" style="">  goto &lt;bb 3&gt;; [INV]</text>
<text text-anchor="start" x="200.06" y="-361.1" font-family="Times,serif" font-size="14.00" style="">else</text>
<text text-anchor="start" x="200.06" y="-344.3" font-family="Times,serif" font-size="14.00" style="">  goto &lt;bb 5&gt;; [INV]</text>
</g>
<!-- fn_0_basic_block_3 -->
<g id="node2" class="node" pointer-events="visible" data-name="fn_0_basic_block_3">

<polygon fill="lightgrey" stroke="black" points="229.5,-212.3 229.5,-286.7 340.5,-286.7 340.5,-212.3 229.5,-212.3" style=""/>
<text text-anchor="start" x="237.5" y="-270.1" font-family="Times,serif" font-size="14.00" style="">&lt;bb 3&gt;:</text>
<polyline fill="none" stroke="black" points="229.5,-261.9 340.5,-261.9" style=""/>
<text text-anchor="start" x="237.5" y="-245.3" font-family="Times,serif" font-size="14.00" style="">f_11 = f_3 * i_2;</text>
<polyline fill="none" stroke="black" points="229.5,-237.1 340.5,-237.1" style=""/>
<text text-anchor="start" x="237.5" y="-220.5" font-family="Times,serif" font-size="14.00" style="">i_12 = i_2 + 1;</text>
</g>
<!-- fn_0_basic_block_4&#45;&gt;fn_0_basic_block_3 -->
<g id="edge4" class="edge" data-name="fn_0_basic_block_4-&gt;fn_0_basic_block_3">

<path fill="none" stroke="black" stroke-width="2" d="M285,-335.6C285,-318.56 285,-311.71 285,-298.81" style=""/>
<polygon fill="black" stroke="black" stroke-width="2" points="288.5,-300.53 285,-290.53 281.5,-300.53 288.5,-300.53" style=""/>
</g>
<!-- fn_0_basic_block_5 -->
<g id="node6" class="node" pointer-events="visible" data-name="fn_0_basic_block_5">

<polygon fill="lightgrey" stroke="black" points="35.89,-199.9 35.89,-299.1 176.11,-299.1 176.11,-199.9 35.89,-199.9" style=""/>
<text text-anchor="start" x="43.89" y="-282.5" font-family="Times,serif" font-size="14.00" style="">&lt;bb 5&gt;:</text>
<polyline fill="none" stroke="black" points="35.89,-274.3 176.11,-274.3" style=""/>
<text text-anchor="start" x="43.89" y="-257.7" font-family="Times,serif" font-size="14.00" style="">printf ("%d\n", f_3);</text>
<polyline fill="none" stroke="black" points="35.89,-249.5 176.11,-249.5" style=""/>
<text text-anchor="start" x="43.89" y="-232.9" font-family="Times,serif" font-size="14.00" style="">n ={v} {CLOBBER};</text>
<polyline fill="none" stroke="black" points="35.89,-224.7 176.11,-224.7" style=""/>
<text text-anchor="start" x="43.89" y="-208.1" font-family="Times,serif" font-size="14.00" style="">_10 = 0;</text>
</g>
<!-- fn_0_basic_block_4&#45;&gt;fn_0_basic_block_5 -->
<g id="edge5" class="edge" data-name="fn_0_basic_block_4-&gt;fn_0_basic_block_5">

<path fill="none" stroke="black" stroke-width="2" d="M285,-335.6C285,-258.73 124.38,-368.01 107.44,-310.77" style=""/>
<polygon fill="black" stroke="black" stroke-width="2" points="111.14,-312.07 106.39,-302.6 104.2,-312.97 111.14,-312.07" style=""/>
</g>
<!-- fn_0_basic_block_3&#45;&gt;fn_0_basic_block_4 -->
<g id="edge3" class="edge" data-name="fn_0_basic_block_3-&gt;fn_0_basic_block_4">

<path fill="none" stroke="blue" stroke-width="2" stroke-dasharray="1,5" d="M285,-211.5C285,-186.83 320.81,-197.63 340.5,-212.5 446.95,-292.89 471.76,-415.47 377.94,-510.3 366.14,-522.23 312.16,-529.07 292.33,-520.14" style=""/>
<polygon fill="blue" stroke="blue" stroke-width="2" points="296.01,-519.09 286.93,-513.63 290.63,-523.56 296.01,-519.09" style=""/>
</g>
<!-- fn_0_basic_block_0 -->
<g id="node3" class="node" pointer-events="visible" data-name="fn_0_basic_block_0">

<polygon fill="white" stroke="black" points="285,-740.8 223.75,-722.8 285,-704.8 346.25,-722.8 285,-740.8" style=""/>
<polyline fill="none" stroke="black" points="235.26,-726.18 235.26,-719.42" style=""/>
<polyline fill="none" stroke="black" points="273.49,-708.18 296.51,-708.18" style=""/>
<polyline fill="none" stroke="black" points="334.74,-719.42 334.74,-726.18" style=""/>
<polyline fill="none" stroke="black" points="296.51,-737.42 273.49,-737.42" style=""/>
<text text-anchor="middle" x="285" y="-718.6" font-family="Times,serif" font-size="14.00" style="">ENTRY</text>
</g>
<!-- fn_0_basic_block_1 -->
<g id="node4" class="node" pointer-events="visible" data-name="fn_0_basic_block_1">

<polygon fill="white" stroke="black" points="106,-52 59.09,-34 106,-16 152.91,-34 106,-52" style=""/>
<polyline fill="none" stroke="black" points="70.3,-38.3 70.3,-29.7" style=""/>
<polyline fill="none" stroke="black" points="94.8,-20.3 117.2,-20.3" style=""/>
<polyline fill="none" stroke="black" points="141.7,-29.7 141.7,-38.3" style=""/>
<polyline fill="none" stroke="black" points="117.2,-47.7 94.8,-47.7" style=""/>
<text text-anchor="middle" x="106" y="-29.8" font-family="Times,serif" font-size="14.00" style="">EXIT</text>
</g>
<!-- fn_0_basic_block_0&#45;&gt;fn_0_basic_block_1 -->
<!-- fn_0_basic_block_2 -->
<g id="node5" class="node" pointer-events="visible" data-name="fn_0_basic_block_2">

<polygon fill="lightgrey" stroke="black" points="221.86,-552.3 221.86,-668.3 348.14,-668.3 348.14,-552.3 221.86,-552.3" style=""/>
<text text-anchor="start" x="229.86" y="-651.7" font-family="Times,serif" font-size="14.00" style="">&lt;bb 2&gt;:</text>
<polyline fill="none" stroke="black" points="221.86,-643.5 348.14,-643.5" style=""/>
<text text-anchor="start" x="229.86" y="-626.9" font-family="Times,serif" font-size="14.00" style="">scanf ("%d", &amp;n);</text>
<polyline fill="none" stroke="black" points="221.86,-618.7 348.14,-618.7" style=""/>
<text text-anchor="start" x="229.86" y="-602.1" font-family="Times,serif" font-size="14.00" style="">i_6 = 2;</text>
<polyline fill="none" stroke="black" points="221.86,-593.9 348.14,-593.9" style=""/>
<text text-anchor="start" x="229.86" y="-577.3" font-family="Times,serif" font-size="14.00" style="">f_7 = 1;</text>
<text text-anchor="start" x="229.86" y="-560.5" font-family="Times,serif" font-size="14.00" style="">goto &lt;bb 4&gt;; [INV]</text>
</g>
<!-- fn_0_basic_block_0&#45;&gt;fn_0_basic_block_2 -->
<g id="edge1" class="edge" data-name="fn_0_basic_block_0-&gt;fn_0_basic_block_2">

<path fill="none" stroke="blue" stroke-width="2" d="M285,-704.8C285,-693.42 285,-688.12 285,-680.25" style=""/>
<polygon fill="blue" stroke="blue" stroke-width="2" points="288.5,-681.83 285,-671.83 281.5,-681.83 288.5,-681.83" style=""/>
</g>
<!-- fn_0_basic_block_2&#45;&gt;fn_0_basic_block_4 -->
<g id="edge2" class="edge" data-name="fn_0_basic_block_2-&gt;fn_0_basic_block_4">

<path fill="none" stroke="blue" stroke-width="2" d="M285,-551.8C285,-538.3 285,-532.39 285,-522.69" style=""/>
<polygon fill="blue" stroke="blue" stroke-width="2" points="288.5,-524.33 285,-514.33 281.5,-524.33 288.5,-524.33" style=""/>
</g>
<!-- fn_0_basic_block_6 -->
<g id="node7" class="node" pointer-events="visible" data-name="fn_0_basic_block_6">

<polygon fill="lightgrey" stroke="black" points="67.09,-88.5 67.09,-162.9 144.91,-162.9 144.91,-88.5 67.09,-88.5" style=""/>
<text text-anchor="start" x="75.09" y="-146.3" font-family="Times,serif" font-size="14.00" style="">&lt;bb 6&gt;:</text>
<polyline fill="none" stroke="black" points="67.09,-138.1 144.91,-138.1" style=""/>
<text text-anchor="start" x="75.09" y="-121.5" font-family="Times,serif" font-size="14.00" style="">&lt;L3&gt;:</text>
<polyline fill="none" stroke="black" points="67.09,-113.3 144.91,-113.3" style=""/>
<text text-anchor="start" x="75.09" y="-96.7" font-family="Times,serif" font-size="14.00" style="">return _10;</text>
</g>
<!-- fn_0_basic_block_5&#45;&gt;fn_0_basic_block_6 -->
<g id="edge6" class="edge" data-name="fn_0_basic_block_5-&gt;fn_0_basic_block_6">

<path fill="none" stroke="blue" stroke-width="2" d="M106,-199.4C106,-188.03 106,-182.72 106,-174.85" style=""/>
<polygon fill="blue" stroke="blue" stroke-width="2" points="109.5,-176.43 106,-166.43 102.5,-176.43 109.5,-176.43" style=""/>
</g>
<!-- fn_0_basic_block_6&#45;&gt;fn_0_basic_block_1 -->
<g id="edge7" class="edge" data-name="fn_0_basic_block_6-&gt;fn_0_basic_block_1">

<path fill="none" stroke="black" stroke-width="2" d="M106,-88C106,-76.62 106,-71.32 106,-63.45" style=""/>
<polygon fill="black" stroke="black" stroke-width="2" points="109.5,-65.03 106,-55.03 102.5,-65.03 109.5,-65.03" style=""/>
</g>
</g>
</svg>